<svg id="cl1" xmlns="http://www.w3.org/2000/svg" width="403.5" height="121.2" viewBox="0 0 403.5 121.2"><title>cloud4</title><g style="opacity:0.8"><path d="M304,108.8c0-17.8-6-34.5-16.5-49.3a83,83,0,0,1,116,61.7H303a79,79,0,0,0,1-12.4" style="fill:#eaebf1"/><path d="M239.8,121.2H1a78.9,78.9,0,0,1-1-12.4C0,48.7,68.1,0,152,0c59.1,0,110.3,24.2,135.5,59.5a82.8,82.8,0,0,0-47.6,61.7" style="fill:#eaebf1"/><path d="M303,121.2H239.8a82.8,82.8,0,0,1,47.6-61.7C298,74.3,304,91,304,108.8a79.1,79.1,0,0,1-1,12.4" style="fill:#eaebf1"/></g></svg>