<svg id="a0269b36-ae0e-409e-b872-dff228aa3f93" data-name="Layer 1" xmlns="http://www.w3.org/2000/svg" width="1972.7" height="1883" viewBox="0 0 1972.7 1883"><title>manycloudz</title><path d="M1365.4,167.6H1260a12.9,12.9,0,1,1,0-25.7h105.4a12.9,12.9,0,1,1,0,25.7" transform="translate(-7.7 -66.1)" style="fill:#fff;opacity:0.73"/><path d="M683.4,669.6H456.6a27.7,27.7,0,1,1,0-55.3H683.4a27.7,27.7,0,1,1,0,55.3" transform="translate(-7.7 -66.1)" style="fill:#fff;opacity:0.28"/><path d="M1335,97.2l132.3-.4a22.3,22.3,0,1,1,.1,44.6l-132.3.4a22.3,22.3,0,1,1-.1-44.6" transform="translate(-7.7 -66.1)" style="fill:#fff;opacity:0.59"/><g style="opacity:0.9"><path d="M936,462.9c0-12.8-4.9-24.8-13.5-35.5a75.5,75.5,0,0,1,27.9-5.3c33.6,0,61.4,21.5,66.8,49.6h-82a50.5,50.5,0,0,0,.8-8.9" transform="translate(-7.7 -66.1)" style="fill:#f6f7f8"/><path d="M883.7,471.8H688.7a49.9,49.9,0,0,1-.8-8.9c0-43.2,55.5-78.2,124.1-78.2,48.3,0,90.1,17.4,110.6,42.7-20.2,8-35.1,24.5-38.9,44.4" transform="translate(-7.7 -66.1)" style="fill:#f6f7f8"/><path d="M935.2,471.8H883.7c3.8-19.8,18.7-36.3,38.9-44.4,8.6,10.6,13.5,22.7,13.5,35.5a50.5,50.5,0,0,1-.8,8.9" transform="translate(-7.7 -66.1)" style="fill:#f6f7f8"/></g><path d="M478.2,197.5h-183a22.3,22.3,0,1,1,0-44.6h183a22.3,22.3,0,1,1,0,44.6" transform="translate(-7.7 -66.1)" style="fill:#fff;opacity:0.6000000000000001"/><path d="M1734.2,361.6l132.3-.4a22.3,22.3,0,1,1,.1,44.6l-132.3.4a22.3,22.3,0,1,1-.1-44.6" transform="translate(-7.7 -66.1)" style="fill:#fff;opacity:0.55"/><path d="M238.6,704.5l259.3-.8a43.7,43.7,0,1,1,.3,87.5l-259.3.8a43.7,43.7,0,1,1-.3-87.5" transform="translate(-7.7 -66.1)" style="fill:#fff;opacity:0.77"/><path d="M178.3,326.7c0-17.8,6-34.6,16.6-49.5A83.3,83.3,0,0,0,78.5,339.1H179.3a79.3,79.3,0,0,1-1-12.4" transform="translate(-7.7 -66.1)" style="fill:#f4f7f6"/><path d="M242.7,339.1H482.3a79.5,79.5,0,0,0,1-12.4c0-60.3-68.3-109.1-152.5-109.1-59.3,0-110.7,24.3-135.9,59.7a83.1,83.1,0,0,1,47.8,61.9" transform="translate(-7.7 -66.1)" style="fill:#f4f7f6"/><path d="M179.3,339.1h63.4a83.1,83.1,0,0,0-47.8-61.9c-10.6,14.9-16.6,31.7-16.6,49.5a79.3,79.3,0,0,0,1,12.4" transform="translate(-7.7 -66.1)" style="fill:#f4f7f6"/><path d="M1404.2,383.8h-183a22.3,22.3,0,1,1,0-44.6h183a22.3,22.3,0,1,1,0,44.6" transform="translate(-7.7 -66.1)" style="fill:#fff;opacity:0.66"/><path d="M1360.5,499.5H1133.7a27.7,27.7,0,1,1,0-55.3h226.8a27.7,27.7,0,1,1,0,55.3" transform="translate(-7.7 -66.1)" style="fill:#fff;opacity:0.62"/><g style="opacity:0.8"><path d="M1612.3,405a35.6,35.6,0,0,0-7-20.8,35,35,0,0,1,48.8,26h-42.3a33.6,33.6,0,0,0,.4-5.2" transform="translate(-7.7 -66.1)" style="fill:#fff"/><path d="M1611.9,410.2h-26.6a34.9,34.9,0,0,1,20.1-26,35.6,35.6,0,0,1,7,20.8,33.5,33.5,0,0,1-.4,5.2" transform="translate(-7.7 -66.1)" style="fill:#fff"/><path d="M1585.3,410.2H1484.7a33,33,0,0,1-.4-5.2c0-25.3,28.7-45.8,64-45.8,24.9,0,46.5,10.2,57,25a34.9,34.9,0,0,0-20.1,26" transform="translate(-7.7 -66.1)" style="fill:#fff"/></g><g style="opacity:0.8"><path d="M1822.9,251.3c0-12.4-4.2-24.1-11.6-34.5a58.1,58.1,0,0,1,81.1,43.1h-70.3a55.3,55.3,0,0,0,.7-8.7" transform="translate(-7.7 -66.1)" style="fill:#eaebf1"/><path d="M1778,259.9H1611a55.2,55.2,0,0,1-.7-8.7c0-42,47.6-76.1,106.3-76.1,41.4,0,77.2,16.9,94.7,41.6a57.9,57.9,0,0,0-33.3,43.1" transform="translate(-7.7 -66.1)" style="fill:#eaebf1"/><path d="M1822.2,259.9H1778a57.9,57.9,0,0,1,33.3-43.1c7.4,10.4,11.6,22.1,11.6,34.5a55.3,55.3,0,0,1-.7,8.7" transform="translate(-7.7 -66.1)" style="fill:#eaebf1"/></g><path d="M80.9,880.3H186.3a12.9,12.9,0,1,0,0-25.7H80.9a12.9,12.9,0,1,0,0,25.7" transform="translate(-7.7 -66.1)" style="fill:#fff;opacity:0.73"/><path d="M1302,1500.7h226.8a27.7,27.7,0,1,0,0-55.3H1302a27.7,27.7,0,1,0,0,55.3" transform="translate(-7.7 -66.1)" style="fill:#fff;opacity:0.28"/><path d="M650.5,928.3l-132.3-.4a22.3,22.3,0,1,0-.1,44.6l132.3,0.4a22.3,22.3,0,1,0,.1-44.6" transform="translate(-7.7 -66.1)" style="fill:#fff;opacity:0.59"/><g style="opacity:0.9"><path d="M1049.4,1294c0-12.8,4.9-24.8,13.5-35.5a75.5,75.5,0,0,0-27.9-5.3c-33.6,0-61.4,21.5-66.8,49.6h82a50.5,50.5,0,0,1-.8-8.9" transform="translate(-7.7 -66.1)" style="fill:#f6f7f8"/><path d="M1101.8,1302.9h194.9a49.9,49.9,0,0,0,.8-8.9c0-43.2-55.5-78.2-124.1-78.2-48.3,0-90.1,17.4-110.6,42.7,20.2,8,35.1,24.5,38.9,44.4" transform="translate(-7.7 -66.1)" style="fill:#f6f7f8"/><path d="M1050.3,1302.9h51.6c-3.8-19.8-18.7-36.3-38.9-44.4-8.6,10.6-13.5,22.7-13.5,35.5a50.5,50.5,0,0,0,.8,8.9" transform="translate(-7.7 -66.1)" style="fill:#f6f7f8"/></g><path d="M1465.1,1260.4h183a22.3,22.3,0,1,0,0-44.6h-183a22.3,22.3,0,1,0,0,44.6" transform="translate(-7.7 -66.1)" style="fill:#fff;opacity:0.6000000000000001"/><path d="M251.2,1192.7l-132.3-.4a22.3,22.3,0,1,0-.1,44.6l132.3,0.4a22.3,22.3,0,1,0,.1-44.6" transform="translate(-7.7 -66.1)" style="fill:#fff;opacity:0.55"/><path d="M1746.8,1535.5l-259.3-.8a43.7,43.7,0,1,0-.3,87.5l259.3,0.8a43.7,43.7,0,1,0,.3-87.5" transform="translate(-7.7 -66.1)" style="fill:#fff;opacity:0.77"/><path d="M1575.7,1111c0-17.8-6-34.6-16.6-49.5a83.3,83.3,0,0,1,116.4,61.9H1574.7a79.3,79.3,0,0,0,1-12.4" transform="translate(-7.7 -66.1)" style="fill:#f4f7f6"/><path d="M1511.3,1123.4H1271.7a79.5,79.5,0,0,1-1-12.4c0-60.3,68.3-109.1,152.5-109.1,59.3,0,110.7,24.3,135.9,59.7a83.1,83.1,0,0,0-47.8,61.9" transform="translate(-7.7 -66.1)" style="fill:#f4f7f6"/><path d="M1574.7,1123.4h-63.4a83.1,83.1,0,0,1,47.8-61.9c10.6,14.9,16.6,31.7,16.6,49.5a79.3,79.3,0,0,1-1,12.4" transform="translate(-7.7 -66.1)" style="fill:#f4f7f6"/><path d="M581.3,1214.8h183a22.3,22.3,0,1,0,0-44.6h-183a22.3,22.3,0,1,0,0,44.6" transform="translate(-7.7 -66.1)" style="fill:#fff;opacity:0.66"/><path d="M286.8,1412.5H513.6a27.7,27.7,0,1,0,0-55.3H286.8a27.7,27.7,0,1,0,0,55.3" transform="translate(-7.7 -66.1)" style="fill:#fff;opacity:0.62"/><g style="opacity:0.8"><path d="M373.2,1236.1a35.6,35.6,0,0,1,7-20.8,35,35,0,0,0-48.8,26h42.3a33.6,33.6,0,0,1-.4-5.2" transform="translate(-7.7 -66.1)" style="fill:#fff"/><path d="M373.6,1241.3h26.6a34.9,34.9,0,0,0-20.1-26,35.6,35.6,0,0,0-7,20.8,33.5,33.5,0,0,0,.4,5.2" transform="translate(-7.7 -66.1)" style="fill:#fff"/><path d="M400.2,1241.3H500.8a33,33,0,0,0,.4-5.2c0-25.3-28.7-45.8-64-45.8-24.9,0-46.5,10.2-57,25a34.9,34.9,0,0,1,20.1,26" transform="translate(-7.7 -66.1)" style="fill:#fff"/></g><g style="opacity:0.8"><path d="M162.6,1082.3c0-12.4,4.2-24.1,11.6-34.5A58.1,58.1,0,0,0,93,1091h70.3a55.3,55.3,0,0,1-.7-8.7" transform="translate(-7.7 -66.1)" style="fill:#eaebf1"/><path d="M207.5,1091h167a55.2,55.2,0,0,0,.7-8.7c0-42-47.6-76.1-106.3-76.1-41.4,0-77.2,16.9-94.7,41.6a57.9,57.9,0,0,1,33.3,43.1" transform="translate(-7.7 -66.1)" style="fill:#eaebf1"/><path d="M163.3,1091h44.2a57.9,57.9,0,0,0-33.3-43.1c-7.4,10.4-11.6,22.1-11.6,34.5a55.3,55.3,0,0,0,.7,8.7" transform="translate(-7.7 -66.1)" style="fill:#eaebf1"/></g><path d="M1373.8,936.5h283a34.5,34.5,0,1,0,0-69.1h-283a34.5,34.5,0,1,0,0,69.1" transform="translate(-7.7 -66.1)" style="fill:#fff;opacity:0.28"/><g style="opacity:0.9"><path d="M1670.8,791.1c0-15.9,6.1-31,16.8-44.2a94.2,94.2,0,0,0-34.8-6.6c-41.9,0-76.7,26.8-83.3,61.9h102.3a63,63,0,0,1-1-11.1" transform="translate(-7.7 -66.1)" style="fill:#f6f7f8"/><path d="M1736.2,802.2h243.2a62.2,62.2,0,0,0,1-11.1c0-53.9-69.3-97.6-154.8-97.6-60.2,0-112.4,21.7-137.9,53.3,25.2,10,43.8,30.6,48.5,55.3" transform="translate(-7.7 -66.1)" style="fill:#f6f7f8"/><path d="M1671.9,802.2h64.3c-4.7-24.7-23.3-45.3-48.5-55.3-10.7,13.3-16.8,28.3-16.8,44.2a63,63,0,0,0,1,11.1" transform="translate(-7.7 -66.1)" style="fill:#f6f7f8"/></g><path d="M1101.3,817.4h283a34.5,34.5,0,1,0,0-69.1h-283a34.5,34.5,0,1,0,0,69.1" transform="translate(-7.7 -66.1)" style="fill:#fff;opacity:0.62"/><path d="M494.6,1392.1H389.2a12.9,12.9,0,1,1,0-25.7H494.6a12.9,12.9,0,1,1,0,25.7" transform="translate(-7.7 -66.1)" style="fill:#fff;opacity:0.73"/><path d="M440.9,1886.9H214a27.7,27.7,0,1,1,0-55.3H440.9a27.7,27.7,0,1,1,0,55.3" transform="translate(-7.7 -66.1)" style="fill:#fff;opacity:0.28"/><path d="M277.8,1646.6H94.8a22.3,22.3,0,1,1,0-44.6h183a22.3,22.3,0,1,1,0,44.6" transform="translate(-7.7 -66.1)" style="fill:#fff;opacity:0.6000000000000001"/><path d="M1161.6,1601h-183a22.3,22.3,0,1,1,0-44.6h183a22.3,22.3,0,1,1,0,44.6" transform="translate(-7.7 -66.1)" style="fill:#fff;opacity:0.66"/><path d="M827.9,1791.4H601.1a27.7,27.7,0,1,1,0-55.3H827.9a27.7,27.7,0,1,1,0,55.3" transform="translate(-7.7 -66.1)" style="fill:#fff;opacity:0.62"/><path d="M636.7,1430.5H771.4c9.1,0,16.5-5.9,16.5-13.3s-7.4-13.3-16.5-13.3H636.7c-9.1,0-16.5,5.9-16.5,13.3s7.4,13.3,16.5,13.3" transform="translate(-7.7 -66.1)" style="fill:#fff;opacity:0.73"/><path d="M1508.6,1949.1h290c19.6,0,35.5-12.8,35.5-28.6s-15.9-28.6-35.5-28.6h-290c-19.6,0-35.5,12.8-35.5,28.6s15.9,28.6,35.5,28.6" transform="translate(-7.7 -66.1)" style="fill:#fff;opacity:0.28"/><path d="M1717.1,1700.9H1951c15.8,0,28.6-10.3,28.6-23.1s-12.8-23.1-28.6-23.1H1717.1c-15.8,0-28.6,10.3-28.6,23.1s12.8,23.1,28.6,23.1" transform="translate(-7.7 -66.1)" style="fill:#fff;opacity:0.6000000000000001"/><path d="M587.1,1653.8H821c15.8,0,28.6-10.3,28.6-23.1s-12.8-23.1-28.6-23.1H587.1c-15.8,0-28.6,10.3-28.6,23.1s12.8,23.1,28.6,23.1" transform="translate(-7.7 -66.1)" style="fill:#fff;opacity:0.66"/><path d="M1013.7,1850.5h290c19.6,0,35.5-12.8,35.5-28.6s-15.9-28.6-35.5-28.6h-290c-19.6,0-35.5,12.8-35.5,28.6s15.9,28.6,35.5,28.6" transform="translate(-7.7 -66.1)" style="fill:#fff;opacity:0.62"/><path d="M80,264.7H199.4a14.3,14.3,0,1,0,0-28.6H80a14.3,14.3,0,1,0,0,28.6" transform="translate(-7.7 -66.1)" style="fill:#fff;opacity:0.73"/><path d="M790.7,649h257c17.4,0,31.4-13.8,31.4-30.7s-14.1-30.7-31.4-30.7h-257c-17.4,0-31.4,13.8-31.4,30.7S773.3,649,790.7,649" transform="translate(-7.7 -66.1)" style="fill:#fff;opacity:0.28"/><path d="M943.2,294.6h207.3c14,0,25.4-11.1,25.4-24.8s-11.4-24.8-25.4-24.8H943.2c-14,0-25.4,11.1-25.4,24.8s11.4,24.8,25.4,24.8" transform="translate(-7.7 -66.1)" style="fill:#fff;opacity:0.6000000000000001"/><path d="M33.1,468.9H240.3c14,0,25.4-11.1,25.4-24.8s-11.4-24.8-25.4-24.8H33.1c-14,0-25.4,11.1-25.4,24.8s11.4,24.8,25.4,24.8" transform="translate(-7.7 -66.1)" style="fill:#fff;opacity:0.66"/><path d="M399.8,127.5h257c17.4,0,31.4-13.8,31.4-30.7s-14.1-30.7-31.4-30.7h-257c-17.4,0-31.4,13.8-31.4,30.7s14.1,30.7,31.4,30.7" transform="translate(-7.7 -66.1)" style="fill:#fff;opacity:0.62"/></svg>