<svg id="cl1" xmlns="http://www.w3.org/2000/svg" width="355.9" height="106.9" viewBox="0 0 355.9 106.9"><title>cloud1</title><path d="M87.7,96c0-15.7,5.3-30.4,14.6-43.5A73.3,73.3,0,0,0,0,106.9H88.6A69.7,69.7,0,0,1,87.7,96" style="fill:#f4f7f6"/><path d="M144.4,106.9H355.1a69.9,69.9,0,0,0,.9-10.9c0-53-60-96-134.1-96-52.2,0-97.3,21.3-119.5,52.5a73.1,73.1,0,0,1,42,54.4" style="fill:#f4f7f6"/><path d="M88.6,106.9h55.7a73.1,73.1,0,0,0-42-54.4C93,65.5,87.7,80.3,87.7,96a69.7,69.7,0,0,0,.9,10.9" style="fill:#f4f7f6"/></svg>